<?xml version="1.0" encoding="UTF-8" standalone="no"?>
<svg
   id="vector"
   width="108"
   height="108"
   viewBox="0 0 108 108"
   version="1.1"
   xmlns="http://www.w3.org/2000/svg"
   xmlns:svg="http://www.w3.org/2000/svg">
  <defs
     id="defs10">
    <radialGradient
       gradientUnits="userSpaceOnUse"
       r="20.594"
       cx="54.141998"
       cy="48.769001"
       id="gradient_0"
       gradientTransform="matrix(2.193116,0,0,2.193116,-64.427669,-59.442216)">
      <stop
         offset="0"
         stop-color="#55E032FF"
         id="stop1" />
      <stop
         offset="1"
         stop-color="#227C53FF"
         id="stop2" />
    </radialGradient>
    <radialGradient
       gradientUnits="userSpaceOnUse"
       r="20.594"
       cx="54.141998"
       cy="48.769001"
       id="gradient_1"
       gradientTransform="matrix(2.193116,0,0,2.193116,-64.427669,-59.442216)">
      <stop
         offset="0"
         stop-color="#55E032FF"
         id="stop3" />
      <stop
         offset="1"
         stop-color="#227C53FF"
         id="stop4" />
    </radialGradient>
    <radialGradient
       gradientUnits="userSpaceOnUse"
       r="12.849"
       cx="54.029999"
       cy="39.144001"
       id="gradient_2"
       gradientTransform="matrix(2.193116,0,0,2.193116,-64.427669,-59.442216)">
      <stop
         offset="0"
         stop-color="#FE7901FF"
         id="stop5" />
      <stop
         offset="1"
         stop-color="#FEBE01FF"
         id="stop6" />
    </radialGradient>
    <radialGradient
       gradientUnits="userSpaceOnUse"
       r="20.594"
       cx="54.141998"
       cy="48.769001"
       id="gradient_3"
       gradientTransform="matrix(2.193116,0,0,2.193116,-64.427669,-59.442216)">
      <stop
         offset="0"
         stop-color="#55E032FF"
         id="stop7" />
      <stop
         offset="1"
         stop-color="#227C53FF"
         id="stop8" />
    </radialGradient>
    <radialGradient
       gradientUnits="userSpaceOnUse"
       r="17.913"
       cx="54.131001"
       cy="49.819"
       id="gradient_4"
       gradientTransform="matrix(2.193116,0,0,2.193116,-64.427669,-59.442216)">
      <stop
         offset="0"
         stop-color="#FE7901FF"
         id="stop9" />
      <stop
         offset="1"
         stop-color="#FEBE01FF"
         id="stop10" />
    </radialGradient>
  </defs>
  <path
     fill="url(#gradient_0)"
     d="m 12.291915,34.438502 0.434238,0.0066 c 20.014377,0.256595 36.184221,16.58873 36.184221,36.666707 v 6.504782 C 46.434346,77.090222 43.999987,76.362108 41.642388,75.436613 27.045007,69.710386 16.044337,56.538532 13.081437,41.131892 12.655973,38.923423 12.392799,36.686445 12.289722,34.440694 Z"
     stroke-linejoin="round"
     fill-rule="evenodd"
     id="path_0"
     style="fill:url(#gradient_0);stroke-width:2.19311" />
  <path
     fill="url(#gradient_1)"
     d="m 41.438428,33.83978 c 1.451843,-7.875479 5.219616,-15.404446 11.305513,-21.490344 0.497838,-0.497837 1.004447,-0.980322 1.524216,-1.449649 0.517575,0.469327 1.026378,0.951812 1.526409,1.449649 6.074931,6.077125 9.842705,13.595127 11.29674,21.459641 -5.296375,4.153762 -9.689186,9.412854 -12.829729,15.428571 -3.136156,-5.974047 -7.53774,-11.23314 -12.823149,-15.395674 z"
     stroke-linejoin="round"
     fill-rule="evenodd"
     id="path_1"
     style="fill:url(#gradient_1);stroke-width:2.19311" />
  <path
     fill="url(#gradient_2)"
     d="M 33.758135,28.900884 C 35.892037,20.613098 40.199317,12.774901 46.684361,6.2876637 48.478331,4.4936948 50.377569,2.8642095 52.362338,1.4035943 L 54.268157,0 56.176168,1.4035943 c 1.984769,1.4628084 3.884009,3.0901005 5.677977,4.8840694 6.480658,6.4806583 10.790132,14.3210483 12.924033,22.6022543 -2.015473,1.030764 -3.949802,2.199695 -5.783247,3.49802 C 67.332549,24.486141 63.437574,16.961559 57.307815,10.833993 56.548998,10.072982 55.768249,9.3492537 54.965567,8.6584222 L 54.265964,8.0553153 53.56636,8.6584222 C 52.765872,9.3492537 51.985123,10.072982 51.226304,10.833993 45.089966,16.970332 41.190606,24.503686 39.53261,32.414255 37.694779,31.111545 35.764837,29.933841 33.753749,28.900884 Z"
     stroke-linejoin="round"
     fill-rule="evenodd"
     id="path_2"
     style="fill:url(#gradient_2);stroke-width:2.19311" />
  <path
     fill="url(#gradient_3)"
     d="m 96.244398,34.438502 -0.434237,0.0066 c -20.01657,0.256595 -36.186415,16.58873 -36.186415,36.666707 v 6.506976 C 79.890332,73.322449 95.279427,55.74901 96.244398,34.440694 Z"
     stroke-linejoin="round"
     fill-rule="evenodd"
     id="path_3"
     style="fill:url(#gradient_3);stroke-width:2.19311" />
  <path
     fill="url(#gradient_4)"
     d="m 12.68887,25.874383 0.149132,0.0022 c 4.506853,0.05702 8.996162,0.787328 13.290282,2.168991 11.959063,3.851112 21.891685,12.759549 27.168322,24.058483 l 0.973744,2.083461 0.969357,-2.085654 C 62.347596,36.789522 77.776168,26.104661 95.702698,25.876577 l 0.149133,-0.0022 c 0.291684,2.098811 0.443009,4.241486 0.445201,6.421443 l -0.510995,0.0066 C 74.600536,32.576546 57.485458,49.860493 57.485458,71.111788 v 6.917088 c -1.048309,0.155711 -2.046178,0.188608 -3.079135,0.192995 h -0.13378 c -1.068047,0 -2.144867,-0.07238 -3.212915,-0.219313 v -6.89077 c 0,-21.251295 -17.117271,-38.535242 -38.300578,-38.809382 l -0.510997,-0.0066 c 0,-2.147061 0.149133,-4.296315 0.445203,-6.421443 z"
     stroke-linejoin="round"
     fill-rule="evenodd"
     id="path_4"
     style="fill:url(#gradient_4);stroke-width:2.19311" />
  <path
     fill="#53cd53"
     d="m 101.9772,99.716601 c 0,-2.46287 -1.997925,-4.462992 -4.460795,-4.462992 H 85.243728 c -2.460676,0 -4.460798,1.997929 -4.460798,4.462992 v 3.822599 c 0,2.46068 1.997928,4.4608 4.460798,4.4608 h 12.272677 c 2.460676,0 4.460795,-1.99793 4.460795,-4.4608 z"
     stroke-linejoin="round"
     fill-rule="evenodd"
     id="path_5"
     style="stroke-width:2.19311" />
  <path
     fill="#ffffff"
     d="m 78.620517,84.818763 c 0,-2.460676 -1.997928,-4.460798 -4.460797,-4.460798 h -6.096864 c -2.460676,0 -4.460798,1.997929 -4.460798,4.460798 v 3.824795 c 0,2.460676 1.997929,4.460798 4.460798,4.460798 h 6.096864 c 2.460676,0 4.460797,-1.997929 4.460797,-4.460798 z"
     stroke-linejoin="round"
     fill-rule="evenodd"
     id="path_6"
     style="stroke-width:2.19311" />
  <path
     fill="#ffffff"
     d="m 61.450612,84.818763 c 0,-2.460676 -1.997929,-4.460798 -4.460798,-4.460798 h -6.09467 c -2.460676,0 -4.460798,1.997929 -4.460798,4.460798 v 3.824795 c 0,2.460676 1.997929,4.460798 4.460798,4.460798 h 6.09467 c 2.460676,0 4.460798,-1.997929 4.460798,-4.460798 z"
     stroke-linejoin="round"
     fill-rule="evenodd"
     id="path_7"
     style="stroke-width:2.19311" />
  <path
     fill="#ffffff"
     d="m 27.11738,84.818763 c 0,-2.460676 -1.997929,-4.460798 -4.460798,-4.460798 h -6.096863 c -2.460676,0 -4.460798,1.997929 -4.460798,4.460798 v 3.824795 c 0,2.460676 1.997929,4.460798 4.460798,4.460798 h 6.096863 c 2.460676,0 4.460798,-1.997929 4.460798,-4.460798 z"
     stroke-linejoin="round"
     fill-rule="evenodd"
     id="path_8"
     style="stroke-width:2.19311" />
  <path
     fill="#ffffff"
     d="m 95.78823,84.818763 c 0,-2.460676 -1.997929,-4.460798 -4.460798,-4.460798 h -6.09467 c -2.462869,0 -4.462991,1.997929 -4.462991,4.460798 v 3.824795 c 0,2.460676 1.997928,4.460798 4.462991,4.460798 h 6.09467 c 2.460676,0 4.460798,-1.997929 4.460798,-4.460798 z"
     stroke-linejoin="round"
     fill-rule="evenodd"
     id="path_9"
     style="stroke-width:2.19311" />
  <path
     fill="#ffffff"
     d="m 21.038062,69.923119 c 0,-2.46287 -1.997928,-4.462991 -4.460797,-4.462991 h -6.09467 c -2.4606765,0 -4.4607984,1.997929 -4.4607984,4.462991 v 3.822601 c 0,2.460676 1.9979288,4.460798 4.4607984,4.460798 h 6.09467 c 2.460676,0 4.460797,-1.997928 4.460797,-4.460798 z"
     stroke-linejoin="round"
     fill-rule="evenodd"
     id="path_10"
     style="stroke-width:2.19311" />
  <path
     fill="#ffffff"
     d="m 101.9772,69.923119 c 0,-2.46287 -1.997925,-4.462991 -4.460795,-4.462991 h -6.09467 c -2.460676,0 -4.460797,1.997929 -4.460797,4.462991 v 3.822601 c 0,2.460676 1.997928,4.460798 4.460797,4.460798 h 6.09467 c 2.460676,0 4.460795,-1.997928 4.460795,-4.460798 z"
     stroke-linejoin="round"
     fill-rule="evenodd"
     id="path_11"
     style="stroke-width:2.19311" />
  <path
     fill="#ffffff"
     d="m 44.282899,84.818763 c 0,-2.460676 -1.997928,-4.460798 -4.460798,-4.460798 h -6.09467 c -2.462869,0 -4.462991,1.997929 -4.462991,4.460798 v 3.824795 c 0,2.460676 1.99793,4.460798 4.462991,4.460798 h 6.09467 c 2.460676,0 4.460798,-1.997929 4.460798,-4.460798 z"
     stroke-linejoin="round"
     fill-rule="evenodd"
     id="path_12"
     style="stroke-width:2.19311" />
  <path
     fill="#fe9801"
     d="m 27.21607,99.716601 c 0,-2.46287 -1.997928,-4.462992 -4.460798,-4.462992 H 10.482595 c -2.4606765,0 -4.4607984,1.997929 -4.4607984,4.462992 v 3.822599 c 0,2.46068 1.9979288,4.4608 4.4607984,4.4608 h 12.272677 c 2.460676,0 4.460798,-1.99793 4.460798,-4.4608 z"
     stroke-linejoin="round"
     fill-rule="evenodd"
     id="path_13"
     style="stroke-width:2.19311" />
  <path
     fill="#ffffff"
     d="m 83.756795,67.041365 c 0.655742,0.776363 1.054889,1.783003 1.054889,2.881754 v 3.822601 c 0,2.460676 -1.997928,4.460798 -4.460798,4.460798 h -6.096863 c -1.557112,0 -2.927809,-0.798293 -3.723911,-2.006701 4.91258,-2.307158 9.377765,-5.414803 13.226683,-9.158452 z"
     stroke-linejoin="round"
     fill-rule="evenodd"
     id="path_14"
     style="stroke-width:2.19311" />
  <path
     fill="#ffffff"
     d="m 24.529503,66.738714 c 3.796284,3.76558 8.20664,6.919282 13.066585,9.263722 -0.774169,1.320257 -2.210661,2.204082 -3.848919,2.204082 h -6.096862 c -2.460676,0 -4.460798,-1.997928 -4.460798,-4.460798 v -3.822601 c 0,-1.247883 0.510996,-2.375144 1.337801,-3.186598 z"
     stroke-linejoin="round"
     fill-rule="evenodd"
     id="path_15"
     style="stroke-width:2.19311" />
  <path
     fill="#ffffff"
     d="m 14.015705,51.362778 c 1.868535,4.322632 4.359915,8.346999 7.366677,11.950289 h -4.822663 c -2.460676,0 -4.460798,-1.997928 -4.460798,-4.460797 v -3.824795 c 0,-1.517637 0.758819,-2.85763 1.916784,-3.664697 z"
     stroke-linejoin="round"
     fill-rule="evenodd"
     id="path_16"
     style="stroke-width:2.19311" />
  <path
     fill="#ffffff"
     d="m 94.369284,51.764118 c 0.87286,0.813646 1.418946,1.975997 1.418946,3.263357 v 3.824795 c 0,2.460676 -1.997929,4.460797 -4.460798,4.460797 h -4.116479 c 2.897106,-3.471703 5.313921,-7.355711 7.156137,-11.548949 z"
     stroke-linejoin="round"
     fill-rule="evenodd"
     id="path_17"
     style="stroke-width:2.19311" />
  <path
     fill="#ffffff"
     d="m 78.782808,99.819677 c 0,-2.432165 -1.971611,-4.40597 -4.403777,-4.40597 H 33.738397 c -2.432166,0 -4.405969,1.973805 -4.405969,4.40597 v 3.774353 c 0,2.43217 1.973803,4.40378 4.405969,4.40378 h 40.640634 c 2.432166,0 4.403777,-1.97161 4.403777,-4.40378 z"
     stroke-linejoin="round"
     fill-rule="evenodd"
     id="path_18"
     style="stroke-width:2.19311" />
</svg>
